<svg width="26" height="26" viewBox="0 0 26 26" fill="none" xmlns="http://www.w3.org/2000/svg">
<path d="M25.9666 13.3244C25.9677 12.4575 25.8938 11.5921 25.746 10.7377H13.6652V15.6372H20.5845C20.4429 16.4198 20.1432 17.1657 19.7035 17.8302C19.2638 18.4946 18.6932 19.0637 18.026 19.5032V22.6836H22.1555C24.5735 20.4697 25.9666 17.1956 25.9666 13.3244Z" fill="#4285F4"/>
<path d="M13.6654 25.7564C17.1224 25.7564 20.0332 24.6291 22.1557 22.6856L18.0262 19.5052C16.8769 20.2791 15.3966 20.7208 13.6654 20.7208C10.3241 20.7208 7.48803 18.4839 6.47388 15.4696H2.21982V18.7472C3.28603 20.8542 4.92096 22.6254 6.94206 23.8631C8.96317 25.1008 11.2909 25.7563 13.6654 25.7564Z" fill="#34A853"/>
<path d="M6.4737 15.4693C5.93756 13.8897 5.93756 12.1792 6.4737 10.5997V7.32214H2.21964C1.3227 9.0946 0.855576 11.0508 0.855576 13.0345C0.855576 15.0182 1.3227 16.9744 2.21964 18.7468L6.4737 15.4693Z" fill="#FBBC04"/>
<path d="M13.6654 5.34847C15.4923 5.31883 17.2575 6.0043 18.5796 7.25671L22.2358 3.62576C19.9174 1.46322 16.8459 0.275955 13.6654 0.312846C11.2909 0.312954 8.96317 0.968458 6.94207 2.20618C4.92096 3.44389 3.28603 5.21511 2.21982 7.32209L6.47389 10.5997C7.48803 7.58535 10.3241 5.34847 13.6654 5.34847Z" fill="#EA4335"/>
</svg>
